<svg xmlns="http://www.w3.org/2000/svg" viewBox="0 0 252 70" fill="none">
  <rect x="0" y="60" width="252" height="7" rx="1" fill="#29F000"/>
  <g transform="translate(2,52) scale(0.02686,-0.02686) skewX(-6)" fill="white">
    <path transform="translate(0,0)" d="M151 1466H999Q1211 1466 1324.5 1361.0Q1438 1256 1438 1101Q1438 971 1357 878Q1303 816 1199 780Q1357 742 1431.5 649.5Q1506 557 1506 417Q1506 303 1453.0 212.0Q1400 121 1308 68Q1251 35 1136 20Q983 0 933 0H151ZM608 891H805Q911 891 952.5 927.5Q994 964 994 1033Q994 1097 952.5 1133.0Q911 1169 808 1169H608ZM608 315H839Q956 315 1004.0 356.5Q1052 398 1052 468Q1052 533 1004.5 572.5Q957 612 838 612H608Z"/>
    <path transform="translate(1553,0)" d="M156 0V1466H911Q1121 1466 1232.0 1430.0Q1343 1394 1411.0 1296.5Q1479 1199 1479 1059Q1479 937 1427.0 848.5Q1375 760 1284 705Q1226 670 1125 647Q1206 620 1243 593Q1268 575 1315.5 516.0Q1363 457 1379 425L1598 0H1086L844 448Q798 535 762 561Q713 595 651 595H611V0ZM611 872H802Q833 872 922 892Q967 901 995.5 938.0Q1024 975 1024 1023Q1024 1094 979.0 1132.0Q934 1170 810 1170H611Z"/>
    <path transform="translate(3106,0)" d="M1052 242H536L465 0H2L553 1466H1047L1598 0H1124ZM957 559 795 1086 634 559Z"/>
    <path transform="translate(4659,0)" d="M1052 242H536L465 0H2L553 1466H1047L1598 0H1124ZM957 559 795 1086 634 559Z"/>
    <path transform="translate(6212,0)" d="M148 1466H901Q1147 1466 1269.5 1349.0Q1392 1232 1392 1016Q1392 794 1258.5 669.0Q1125 544 851 544H603V0H148ZM603 841H714Q845 841 898.0 886.5Q951 932 951 1003Q951 1072 905.0 1120.0Q859 1168 732 1168H603Z"/>
  </g>
  <circle cx="212" cy="30" r="5.5" fill="#29F000"/>
  <circle cx="222" cy="23" r="4" fill="#29F000" opacity="0.7"/>
  <circle cx="230" cy="17" r="2.5" fill="#29F000" opacity="0.45"/>
  <circle cx="236" cy="12" r="1.5" fill="#29F000" opacity="0.25"/>
</svg>